# xmcd
#
# Track frame offsets:
# 150
# 27156
# 44874
# 63298
# 82164
# 97631
# 120942
# 148150
# 167914
# 189814
# 210365
# 234845
# 257708
# 287583
# 295018
# 319451
#
# Disc length: 4566 seconds
#
#
# Revision: 3
# Processed by: cddbd v1.5.1PL0 Copyright (c) Steve Scherf et al.
# Submitted via: FreeRIP 2.80 
#
DISCID=dd11d410
DTITLE=DJ Spinna - Here To There
DYEAR=2003
DGENRE=Hip-Hop
TTITLE0=Alfonso's Thang (feat. Ticklah and Alfonso Greer)
TTITLE1=Drive (feat. Shadowman from OldWorldDisorder)
TTITLE2=Hold (feat. Abani B. Fly and Jean Grae)
TTITLE3=Tune You Out (feat. Rise)
TTITLE4=Galactic Soul
TTITLE5=Idols (feat. Vinia Mojica)
TTITLE6=All Up In It (feat. Eric Krasno and Neal Evans from Soulive)
TTITLE7=You Got To Live (feat. Jigmastas and Akil)
TTITLE8=Surely (feat Ovasoul7)
TTITLE9=Rock (Unplugged) (feat. Tortured Soul)
TTITLE10=Fly Or Burn (feat. The Beduin)
TTITLE11=Glad You're Mine (feat. Angela Johnson)
TTITLE12=Love Is Sold (feat. Abdul Shyllon)
TTITLE13=Music In Me (Interlude)
TTITLE14=Music In Me (Come Alive) (feat. Shaun Escoffery)
TTITLE15=The Originator
EXTD=
EXTT0=dd11d410
EXTT1=
EXTT2=
EXTT3=
EXTT4=
EXTT5=
EXTT6=
EXTT7=
EXTT8=
EXTT9=
EXTT10=
EXTT11=
EXTT12=
EXTT13=
EXTT14=
EXTT15=
PLAYORDER=
